<?xml version="1.0" encoding="UTF-8"?><svg id="Ebene_2" xmlns="http://www.w3.org/2000/svg" viewBox="0 0 1155.12 550.41"><defs><style>.cls-1{fill:#5d5d5d;}.cls-1,.cls-2,.cls-3,.cls-4,.cls-5{stroke-width:0px;}.cls-2{fill:#da3771;}.cls-3{fill:#a5c84d;}.cls-4{fill:#ef7b1e;}.cls-5{fill:#007ab2;}</style></defs><g id="Ebene_1_Kopie_Kopie"><path class="cls-1" d="m9.48,543.36c-5.02-3.64-8.16-9.27-9.43-16.88-.21-2.22.26-3.93,1.43-5.15,1.16-1.21,2.85-1.83,5.07-1.83s3.7.5,4.76,1.51c1.05,1.01,1.8,2.67,2.22,4.99.74,3.59,2.4,6.08,4.99,7.45,2.59,1.37,6.63,2.07,12.12,2.07h22.82c4.65,0,8.22-.53,10.7-1.59,2.48-1.06,4.25-2.82,5.31-5.31,1.05-2.48,1.58-6,1.58-10.54,0-6.76-1.27-11.41-3.8-13.94-2.54-2.54-7.13-3.8-13.79-3.8h-19.65c-9.93,0-17.33-2.43-22.19-7.29-4.86-4.86-7.29-12.31-7.29-22.35s2.4-17.3,7.21-22.1c4.8-4.81,12.17-7.22,22.11-7.22h18.86c16.69,0,26.31,6.98,28.84,20.93.32,2.22-.11,3.93-1.27,5.15-1.16,1.22-2.91,1.83-5.23,1.83-2.11,0-3.7-.53-4.76-1.59-1.06-1.05-1.74-2.7-2.06-4.91-.85-3.06-2.43-5.17-4.75-6.34-2.33-1.16-5.92-1.74-10.78-1.74h-18.86c-4.33,0-7.63.48-9.91,1.42-2.27.95-3.86,2.56-4.75,4.84-.9,2.27-1.35,5.52-1.35,9.74s.47,7.64,1.43,9.91c.95,2.28,2.56,3.91,4.84,4.91,2.27,1,5.57,1.5,9.9,1.5h19.65c10.46,0,18.23,2.54,23.3,7.61,5.07,5.07,7.61,12.89,7.61,23.45s-2.53,18.2-7.61,23.22c-5.07,5.02-12.84,7.52-23.3,7.52h-22.82c-9.09,0-16.14-1.83-21.15-5.47Z"/><path class="cls-1" d="m131.73,542.17v-87.33h-30.74c-4.44,0-6.66-2.22-6.66-6.65s2.22-6.66,6.66-6.66h74.8c4.44,0,6.66,2.22,6.66,6.66s-2.22,6.65-6.66,6.65h-30.75v87.33c0,2.12-.58,3.75-1.74,4.91-1.16,1.16-2.8,1.74-4.91,1.74-4.44,0-6.66-2.22-6.66-6.65Z"/><path class="cls-1" d="m267.23,537.26c1.16,1.16,1.74,2.8,1.74,4.91s-.58,3.75-1.74,4.91c-1.16,1.16-2.8,1.74-4.91,1.74h-56.9c-2.12,0-3.75-.58-4.91-1.74-1.16-1.16-1.74-2.8-1.74-4.91v-94.14c0-2.11.58-3.75,1.74-4.91,1.16-1.16,2.8-1.75,4.91-1.75h56.9c2.11,0,3.75.59,4.91,1.75,1.16,1.16,1.74,2.8,1.74,4.91s-.58,3.75-1.74,4.91c-1.16,1.16-2.8,1.74-4.91,1.74h-50.24v33.28h31.54c2.11,0,3.75.58,4.91,1.74,1.16,1.17,1.74,2.8,1.74,4.91s-.58,3.75-1.74,4.91c-1.16,1.16-2.8,1.74-4.91,1.74h-31.54v34.24h50.24c2.11,0,3.75.58,4.91,1.74Z"/><path class="cls-1" d="m355.23,496.21c-3.91,5.07-9.56,8.19-16.96,9.35l20.76,34.54c.63,1.06.95,2.22.95,3.49,0,2.33-1.16,4.17-3.48,5.55-1.37.84-2.59,1.27-3.64,1.27-2.12,0-3.91-1.17-5.39-3.49l-24.09-40.1-.47-.79h-22.19v36.14c0,2.12-.58,3.75-1.74,4.91-1.16,1.16-2.8,1.74-4.91,1.74s-3.75-.58-4.91-1.74c-1.16-1.16-1.74-2.8-1.74-4.91v-94.14c0-2.11.58-3.75,1.74-4.91,1.16-1.16,2.8-1.75,4.91-1.75h37.09c9.72,0,17.14,2.57,22.27,7.69,5.12,5.13,7.68,12.55,7.68,22.27v4.76c0,8.34-1.95,15.05-5.86,20.13Zm-7.45-24.89c0-5.91-1.27-10.16-3.8-12.75-2.53-2.59-6.81-3.88-12.84-3.88h-30.43v38.03h30.43c6.02,0,10.3-1.27,12.84-3.81,2.54-2.53,3.8-6.81,3.8-12.83v-4.76Z"/><path class="cls-1" d="m464.69,443.12c1.16,1.16,1.74,2.8,1.74,4.91v94.14c0,2.12-.58,3.75-1.74,4.91-1.16,1.16-2.8,1.74-4.91,1.74-1.27,0-2.43-.32-3.49-.95-1.06-.64-2.12-1.64-3.17-3.01l-60.38-77.81v75.12c0,2.12-.58,3.75-1.74,4.91-1.16,1.16-2.8,1.74-4.91,1.74s-3.75-.58-4.91-1.74c-1.16-1.16-1.74-2.8-1.74-4.91v-94.14c0-2.11.58-3.75,1.74-4.91,1.16-1.16,2.8-1.75,4.91-1.75,1.27,0,2.4.32,3.41.95,1,.63,2.09,1.64,3.25,3.01l60.38,77.81v-75.12c0-2.11.58-3.75,1.74-4.91,1.16-1.16,2.8-1.75,4.91-1.75s3.75.59,4.91,1.75Z"/><path class="cls-1" d="m558.21,537.26c1.16,1.16,1.74,2.8,1.74,4.91s-.58,3.75-1.74,4.91c-1.16,1.16-2.8,1.74-4.91,1.74h-56.9c-2.11,0-3.75-.58-4.91-1.74-1.16-1.16-1.74-2.8-1.74-4.91v-94.14c0-2.11.58-3.75,1.74-4.91,1.16-1.16,2.8-1.75,4.91-1.75h56.9c2.11,0,3.75.59,4.91,1.75,1.16,1.16,1.74,2.8,1.74,4.91s-.58,3.75-1.74,4.91c-1.16,1.16-2.8,1.74-4.91,1.74h-50.24v33.28h31.54c2.11,0,3.75.58,4.91,1.74,1.16,1.17,1.74,2.8,1.74,4.91s-.58,3.75-1.74,4.91c-1.16,1.16-2.8,1.74-4.91,1.74h-31.54v34.24h50.24c2.11,0,3.75.58,4.91,1.74Z"/><path class="cls-1" d="m663.65,443.12c1.16,1.16,1.74,2.8,1.74,4.91v94.14c0,2.12-.58,3.75-1.74,4.91-1.16,1.16-2.8,1.74-4.91,1.74-1.26,0-2.42-.32-3.48-.95-1.06-.64-2.12-1.64-3.17-3.01l-60.38-77.81v75.12c0,2.12-.59,3.75-1.75,4.91-1.17,1.16-2.8,1.74-4.91,1.74s-3.75-.58-4.91-1.74c-1.16-1.16-1.74-2.8-1.74-4.91v-94.14c0-2.11.58-3.75,1.74-4.91,1.16-1.16,2.8-1.75,4.91-1.75,1.27,0,2.41.32,3.41.95,1,.63,2.08,1.64,3.25,3.01l60.38,77.81v-75.12c0-2.11.58-3.75,1.74-4.91,1.16-1.16,2.8-1.75,4.91-1.75s3.75.59,4.91,1.75Z"/><path class="cls-1" d="m688.55,542.17v-94.14c0-4.44,2.22-6.66,6.65-6.66s6.66,2.22,6.66,6.66v87.48h43.9c4.44,0,6.65,2.22,6.65,6.65s-2.22,6.65-6.65,6.65h-50.56c-4.44,0-6.65-2.22-6.65-6.65Z"/><path class="cls-1" d="m856.55,542.65c0,2.53-1.43,4.38-4.28,5.55-.95.42-2.01.63-3.17.63-2.53,0-4.38-1.42-5.55-4.28l-8.56-20.76h-49.29l-8.24,20.76c-1.16,2.86-3.01,4.28-5.55,4.28-1.06,0-2.06-.21-3.01-.63-2.96-1.06-4.44-2.91-4.44-5.55,0-1.17.21-2.22.63-3.17l37.72-92.87c1.59-3.48,4.07-5.23,7.46-5.23h.31c3.49.21,5.82,1.96,6.98,5.23l38.35,92.87c.42.95.64,2.01.64,3.17Zm-65.61-32.17h38.67l-19.81-48.02-18.86,48.02Z"/><path class="cls-1" d="m953.76,513.64v5.39c0,9.72-2.56,17.11-7.69,22.18-5.12,5.07-12.55,7.61-22.26,7.61h-43.42c-2.11,0-3.75-.58-4.91-1.74-1.16-1.16-1.74-2.8-1.74-4.91v-94.14c0-2.11.58-3.75,1.74-4.91,1.16-1.16,2.8-1.75,4.91-1.75h41.36c8.34,0,14.79,2.22,19.33,6.66,4.54,4.44,6.82,10.78,6.82,19.02v4.27c0,3.39-.59,6.5-1.75,9.35-1.16,2.86-2.8,5.23-4.91,7.13,8.34,4.86,12.52,13.47,12.52,25.83Zm-66.72-29.64h39.62c2.75-.32,4.75-1.6,6.02-3.88,1.26-2.27,1.9-5.2,1.9-8.8v-4.27c0-4.54-.95-7.74-2.85-9.59-1.9-1.85-5.23-2.77-9.98-2.77h-34.71v29.31Zm53.41,29.64c0-5.91-1.26-10.12-3.8-12.6-2.53-2.48-6.81-3.72-12.83-3.72h-36.77v38.2h36.77c5.91,0,10.16-1.27,12.76-3.81,2.59-2.54,3.88-6.76,3.88-12.68v-5.39Z"/><path class="cls-1" d="m979.49,540.19c-5.76-5.76-8.63-14.71-8.63-26.86v-36.61c0-12.15,2.9-21.11,8.72-26.86,5.8-5.76,14.74-8.58,26.78-8.48h19.02c12.15,0,21.1,2.88,26.87,8.64,5.75,5.76,8.63,14.72,8.63,26.86v36.45c0,12.15-2.88,21.11-8.63,26.86-5.77,5.76-14.71,8.63-26.87,8.63h-19.02c-12.15,0-21.1-2.88-26.86-8.63Zm45.88-4.67c5.8,0,10.27-.69,13.39-2.07,3.12-1.37,5.37-3.62,6.74-6.73,1.37-3.11,2.06-7.58,2.06-13.39v-36.45c0-5.7-.68-10.14-2.06-13.31-1.37-3.17-3.64-5.44-6.82-6.82-3.17-1.37-7.61-2.06-13.31-2.06h-19.02c-5.7-.1-10.14.53-13.31,1.9-3.17,1.37-5.44,3.64-6.81,6.82-1.38,3.17-2.06,7.6-2.06,13.31v36.61c0,5.81.68,10.28,2.06,13.39,1.37,3.12,3.61,5.36,6.73,6.73,3.11,1.37,7.58,2.07,13.39,2.07h19.02Z"/><path class="cls-1" d="m1149.26,496.21c-3.91,5.07-9.56,8.19-16.95,9.35l20.76,34.54c.63,1.06.95,2.22.95,3.49,0,2.33-1.16,4.17-3.48,5.55-1.38.84-2.59,1.27-3.65,1.27-2.12,0-3.91-1.17-5.39-3.49l-24.09-40.1-.47-.79h-22.19v36.14c0,2.12-.59,3.75-1.75,4.91-1.16,1.16-2.8,1.74-4.91,1.74s-3.75-.58-4.91-1.74c-1.16-1.16-1.74-2.8-1.74-4.91v-94.14c0-2.11.58-3.75,1.74-4.91,1.17-1.16,2.8-1.75,4.91-1.75h37.09c9.71,0,17.14,2.57,22.26,7.69,5.13,5.13,7.69,12.55,7.69,22.27v4.76c0,8.34-1.95,15.05-5.86,20.13Zm-7.45-24.89c0-5.91-1.26-10.16-3.8-12.75-2.54-2.59-6.81-3.88-12.83-3.88h-30.43v38.03h30.43c6.02,0,10.3-1.27,12.83-3.81,2.54-2.53,3.8-6.81,3.8-12.83v-4.76Z"/><path class="cls-5" d="m744.33,162.59c7.33-5.95,14.37-13.75,14.37-24.94,0-15.17-10.79-27.48-24.1-27.48h-167.2l-10.96,32.97h152.79c4.44,0,2.13,2.55,2.13,2.55l-39.86,30.52,11.1,33.32,61.71-46.94Z"/><path class="cls-1" d="m608.2,23.33c-3.26-8.88-9.37-18.11-20.09-21.8-14.54-5-32.19,2.52-38.09,18.75l-50.42,152.91,28,21.06,47.64-144.07c1.5-4.19,5.74-1.3,5.74-1.3l17.53,49.64h34.77l-25.08-75.2Z"/><path class="cls-2" d="m427.03,110.18c-9.57.3-20.01,2.23-26.7,11.22-9.06,12.17-7.56,28.63,3.36,36.76l136.57,102.12,27.74-20.85-123.54-92.55c-3.65-2.72-.48-3.75-.48-3.75h53.19l10.95-32.97h-81.1Z"/><path class="cls-3" d="m660.61,350.87c8.12,5.56,19.9,10.24,30.52,6.73,14.4-4.79,22.44-19.6,17.95-33.11l-56.89-169.7h-34.89l51.54,154.49c1.51,4.49-1.29,3.79-1.29,3.79l-52.61-38.17-27.62,20.78,73.28,55.18Z"/><path class="cls-4" d="m450.78,318.26c-2.73,9.54-4.11,20.33,2.63,29.25,9.14,12.12,25.85,14.93,37.31,6.29l144.21-108.51-11.05-33.21-131.41,98.57c-3.82,2.89-3.09-.3-3.09-.3l19.26-59.08-28.09-21.14-29.77,88.14Z"/></g></svg>